<svg xmlns="http://www.w3.org/2000/svg" data-name="Layer 1" viewBox="0 0 64 64"><path d="M25 12V22a1 1 0 0 0 1 1H38a1 1 0 0 0 1-1V12a3 3 0 0 0-3-3H34.794a4.5 4.5 0 1 0-5.588 0H28A3 3 0 0 0 25 12zm7-9a2.5 2.5 0 1 1-2.5 2.5A2.5 2.5 0 0 1 32 3zm4 8a1 1 0 0 1 1 1v9H27V12a1 1 0 0 1 1-1zM40.94 40.1a1.754 1.754 0 0 0-.859-1.09l-.329-.183a7.131 7.131 0 0 0 0-1.652l.328-.182a1.757 1.757 0 0 0 .86-1.091 1.727 1.727 0 0 0-.192-1.352L39.46 32.418a1.834 1.834 0 0 0-2.438-.642l-.376.208a7.925 7.925 0 0 0-1.553-.868v-.347A1.789 1.789 0 0 0 33.289 29H30.711a1.789 1.789 0 0 0-1.8 1.769v.347a7.947 7.947 0 0 0-1.553.868l-.375-.206a1.832 1.832 0 0 0-2.438.638l-1.29 2.135a1.725 1.725 0 0 0-.191 1.35 1.754 1.754 0 0 0 .859 1.09l.329.183a7.131 7.131 0 0 0 0 1.652l-.328.182a1.757 1.757 0 0 0-.86 1.091 1.727 1.727 0 0 0 .192 1.352l1.288 2.131a1.835 1.835 0 0 0 2.438.642l.376-.208a7.925 7.925 0 0 0 1.553.868v.347A1.789 1.789 0 0 0 30.711 47h2.578a1.789 1.789 0 0 0 1.8-1.769v-.347a7.947 7.947 0 0 0 1.553-.868l.375.206a1.831 1.831 0 0 0 2.438-.638l1.29-2.135A1.725 1.725 0 0 0 40.94 40.1zM37.8 38a5.019 5.019 0 0 1-.054.738 1.754 1.754 0 0 0 .9 1.764l.251.14-1.057 1.75-.327-.181a1.87 1.87 0 0 0-1.989.145 5.791 5.791 0 0 1-1.283.713 1.787 1.787 0 0 0-1.151 1.648V45H30.907v-.283a1.785 1.785 0 0 0-1.151-1.647 5.857 5.857 0 0 1-1.285-.715 1.872 1.872 0 0 0-1.99-.143l-.324.18L25.1 40.642l.25-.139a1.755 1.755 0 0 0 .9-1.768A5.087 5.087 0 0 1 26.2 38a5.019 5.019 0 0 1 .054-.738 1.754 1.754 0 0 0-.9-1.764l-.251-.14 1.057-1.75.327.181a1.872 1.872 0 0 0 1.989-.145 5.791 5.791 0 0 1 1.283-.713 1.787 1.787 0 0 0 1.151-1.648V31h2.186v.283a1.785 1.785 0 0 0 1.151 1.647 5.857 5.857 0 0 1 1.285.715 1.866 1.866 0 0 0 1.99.143l.324-.18 1.057 1.75-.25.139a1.755 1.755 0 0 0-.9 1.768A5.087 5.087 0 0 1 37.8 38z"/><path d="M32 34.5A3.5 3.5 0 1 0 35.5 38 3.5 3.5 0 0 0 32 34.5zm0 5A1.5 1.5 0 1 1 33.5 38 1.5 1.5 0 0 1 32 39.5zM12.315 28.666l-1.873-.7c-.241.644-.454 1.3-.633 1.966l1.929.525C11.9 29.857 12.1 29.254 12.315 28.666zM41.888 17.469c.557.3 1.1.622 1.618.962l1.1-1.672c-.566-.372-1.163-.727-1.774-1.054zM54.909 38.059C54.97 37.38 55 36.687 55 36v-.093L53 36c0 .628-.028 1.262-.083 1.883zM49.99 25.16c.322.532.624 1.089.9 1.653l1.8-.876c-.3-.619-.632-1.227-.984-1.81zM40.269 55.31l.789 1.837c.634-.272 1.258-.574 1.856-.9l-.949-1.76C41.419 54.785 40.848 55.061 40.269 55.31zM13.941 25.273l-1.718-1.021c-.353.592-.68 1.2-.974 1.816l1.8.866C13.32 26.373 13.62 25.814 13.941 25.273zM51.637 28.54c.221.585.42 1.187.589 1.79l1.925-.541c-.185-.66-.4-1.319-.645-1.958zM32.965 56.978l.092 2c.681-.032 1.373-.094 2.051-.185l-.265-1.982C34.221 56.893 33.589 56.949 32.965 56.978zM16.149 22.225L14.64 20.912c-.446.513-.877 1.056-1.283 1.614l1.62 1.174C15.347 23.189 15.741 22.693 16.149 22.225zM52.65 32.163c.114.617.2 1.245.258 1.866l1.992-.185c-.063-.681-.159-1.367-.283-2.042zM21.042 15.773c-.6.326-1.192.683-1.766 1.064L20.384 18.5c.523-.348 1.066-.675 1.613-.972zM21.123 56.27c.6.322 1.224.624 1.863.9l.784-1.84c-.583-.248-1.153-.522-1.7-.816zM16.063 19.418l1.385 1.441c.455-.436.931-.854 1.415-1.242l-1.25-1.56C17.083 18.48 16.562 18.939 16.063 19.418zM9.357 31.944c-.12.675-.211 1.364-.27 2.044l1.992.174c.055-.622.138-1.251.247-1.868zM9 36.048c0 .68.033 1.372.1 2.058l1.992-.179C11.03 37.3 11 36.665 11 36.044zM28.938 58.8c.674.091 1.367.151 2.056.181l.086-2c-.63-.027-1.261-.082-1.876-.165zM47.765 22.126c.415.472.812.965 1.179 1.466l1.614-1.182c-.4-.55-.838-1.09-1.293-1.606zM45.033 19.533c.492.391.971.806 1.422 1.236l1.379-1.45c-.5-.47-1.019-.925-1.557-1.352zM36.694 56.474l.446 1.949c.667-.152 1.336-.337 1.987-.549l-.617-1.9C37.914 56.165 37.3 56.334 36.694 56.474zM24.918 57.889c.648.21 1.318.394 1.992.546l.44-1.952c-.614-.138-1.224-.3-1.815-.5zM15 49H13.794a4.5 4.5 0 1 0-5.588 0H7a3 3 0 0 0-3 3V62a1 1 0 0 0 1 1H17a1 1 0 0 0 1-1V52A3 3 0 0 0 15 49zm-4-6a2.5 2.5 0 1 1-2.5 2.5A2.5 2.5 0 0 1 11 43zm5 18H6V52a1 1 0 0 1 1-1h8a1 1 0 0 1 1 1zM57 49H55.794a4.5 4.5 0 1 0-5.588 0H49a3 3 0 0 0-3 3V62a1 1 0 0 0 1 1H59a1 1 0 0 0 1-1V52A3 3 0 0 0 57 49zm-4-6a2.5 2.5 0 1 1-2.5 2.5A2.5 2.5 0 0 1 53 43zm5 18H48V52a1 1 0 0 1 1-1h8a1 1 0 0 1 1 1z"/></svg>