<svg xmlns="http://www.w3.org/2000/svg" data-name="Layer 1" viewBox="0 0 64 64"><path fill="#81d4fa" d="M57,56H4a2,2,0,0,1-2-2V46a2,2,0,0,1,2-2H57l5,6Z"/><polygon points="55 44 51 44 56 50 51 56 55 56 60 50 55 44" opacity=".1"/><circle cx="21" cy="34.5" r="15.5" fill="#fff"/><path d="M21.63,19a15.45,15.45,0,0,0-2.75.26,15.48,15.48,0,0,1,0,30.48A15.49,15.49,0,1,0,21.63,19Z" opacity=".1"/><path fill="#4d4d4d" d="M23,35a2,2,0,0,0-2-2H18a2,2,0,0,0,0,4h3A2,2,0,0,0,23,35Z"/><circle cx="29" cy="35" r="2" fill="#81d4fa"/><path fill="#4d4d4d" d="M.8,33.6l4,3A2.05,2.05,0,0,0,7,36.71l5-3A2,2,0,0,0,10,30.28l-1.41.85A13.43,13.43,0,1,1,21.54,48a2,2,0,1,0,0,4A17.44,17.44,0,0,0,32.77,21.22,6.57,6.57,0,1,1,43.39,19.3l-.6-1.2a2,2,0,0,0-3.58,1.79l2,4A2,2,0,0,0,43.33,25l6-1A2,2,0,0,0,48.67,20l-1.35.22A10.57,10.57,0,1,0,27,18a17.27,17.27,0,0,0-5.41-.87A17.46,17.46,0,0,0,4.42,31.31L3.2,30.4A2,2,0,0,0,.8,33.6Z"/><path fill="#4d4d4d" d="M63.54,48.72l-5-6A2,2,0,0,0,57,42H43a2,2,0,1,0,0,4H56.06l3.34,4-3.34,4H4V46H16.25a2,2,0,0,0,0-4H4a4,4,0,0,0-4,4v8a4,4,0,0,0,4,4H57a2,2,0,0,0,1.54-.72l5-6A2,2,0,0,0,63.54,48.72Z"/></svg>