<svg version="1.1" id="Layer_1" xmlns="http://www.w3.org/2000/svg" x="0" y="0" viewBox="0 0 100 100" xml:space="preserve"><style type="text/css">.st0,.st1{fill:#99425b;stroke:#fff;stroke-width:4.4672}.st1{fill:none}.st2{fill:#99425b}</style><path class="st0" d="M79.7 49.6c-.1.1-4.1-.6-9.1-.9-4.1-.3-8.8-.3-12.7 0-3.1.2-7.2-1.4-7.7.5-1.8 7-5.8 13.1-10.8 17.9-3.8 3.6-8.1 6.3-12.8 8-5.6-2.9-8.2-9.2-5.8-14.8 1.9-4.4 4.1-9.3 0-10.4-3-.8-4.6 2-5.7 5-2.2 5.8-6.3 11.8-7.5 18.9-1.3 7.3 0 15.2 6.4 19.7C29.1 104 45.5 87 62.7 82.8c6.3-1.5 13.1-1.3 18.6-4.5 4.1-2.4 6.9-6.4 7.6-10.8 1.4-7.2-2.3-14.3-9.2-17.9z"/><path class="st1" d="M50.2 49.2c-1.8 7-5.8 13.1-10.8 17.9-3.8 3.6-8.1 6.3-12.8 8-5.6-2.9-8.2-9.2-5.8-14.8 1.9-4.4 4.1-9.3 0-10.4-3-.8-4.6 2-5.7 5-2.2 5.8-6.3 11.8-7.5 18.9-1.3 7.3 0 15.2 6.4 19.7C29.1 104 45.5 87 62.7 82.8c6.3-1.5 13.1-1.3 18.6-4.5 4.1-2.4 6.9-6.4 7.6-10.8 1.2-7.2-2.5-14.3-9.4-17.9"/><path class="st2" d="M64.1 21.2L76.2 46 90.7 3.1H37.4l14.5 42.8z"/><path class="st1" d="M64.1 21.2L76.2 46 90.7 3.1H37.4l14.5 42.8z"/><circle class="st2" cx="49.3" cy="49.2" r="9.1"/><circle class="st1" cx="49.3" cy="49.2" r="9.1"/><circle class="st0" cx="79.1" cy="49.2" r="9.1"/><circle class="st1" cx="79.1" cy="49.2" r="9.1"/><circle class="st2" cx="19.4" cy="49.3" r="9.1"/><circle class="st1" cx="19.4" cy="49.3" r="9.1"/></svg>