<svg xmlns="http://www.w3.org/2000/svg" width="48" height="48" viewBox="0 0 48 48"><g transform="translate(0 -1004.362)"><circle cx="24" cy="1028.362" r="24" fill="#ef4c45" fill-rule="evenodd"/><g transform="translate(142.293 -75.777)"><path fill="#25b39e" style="isolation:auto;mix-blend-mode:normal" d="m -131.2927,1093.139 0,24 26,0 0,-24 -26,0 z" color="#000" overflow="visible"/><path fill="#2b4255" d="m -131.7927,1090.139 c -0.27613,0 -0.49997,0.2239 -0.5,0.5 l 0,27 c 3e-5,0.2761 0.22387,0.5 0.5,0.5 l 27,0 c 0.27613,0 0.49997,-0.2239 0.5,-0.5 l 0,-27 c -3e-5,-0.2761 -0.22387,-0.5 -0.5,-0.5 z m 0.5,3 26,0 0,24 -26,0 z" color="#000" font-family="sans-serif" font-weight="400" overflow="visible" style="line-height:normal;text-indent:0;text-align:start;text-decoration-line:none;text-decoration-style:solid;text-decoration-color:#000;text-transform:none;block-progression:tb;isolation:auto;mix-blend-mode:normal"/><circle style="isolation:auto;mix-blend-mode:normal" cx="-129.793" cy="1091.639" r=".5" fill="#f8b74e" fill-opacity=".976" color="#000" overflow="visible"/><circle cx="-127.793" cy="1091.639" r=".5" fill="#25b39e" color="#000" overflow="visible" style="isolation:auto;mix-blend-mode:normal"/><circle style="isolation:auto;mix-blend-mode:normal" cx="-125.793" cy="1091.639" r=".5" fill="#f05542" color="#000" overflow="visible"/><circle cx="-128.793" cy="1095.639" r=".5" fill="#2b4255" color="#000" overflow="visible" style="isolation:auto;mix-blend-mode:normal"/><circle style="isolation:auto;mix-blend-mode:normal" cx="-128.793" cy="1097.639" r=".5" fill="#2b4255" color="#000" overflow="visible"/><circle style="isolation:auto;mix-blend-mode:normal" cx="-128.793" cy="1099.639" r=".5" fill="#2b4255" color="#000" overflow="visible"/><circle cx="-128.793" cy="1101.639" r=".5" fill="#2b4255" color="#000" overflow="visible" style="isolation:auto;mix-blend-mode:normal"/><circle style="isolation:auto;mix-blend-mode:normal" cx="-128.793" cy="1103.639" r=".5" fill="#2b4255" color="#000" overflow="visible"/><circle cx="-128.793" cy="1105.639" r=".5" fill="#2b4255" color="#000" overflow="visible" style="isolation:auto;mix-blend-mode:normal"/><circle cx="-128.793" cy="1107.639" r=".5" fill="#2b4255" color="#000" overflow="visible" style="isolation:auto;mix-blend-mode:normal"/><circle style="isolation:auto;mix-blend-mode:normal" cx="-128.793" cy="1109.639" r=".5" fill="#2b4255" color="#000" overflow="visible"/><circle cx="-128.793" cy="1111.639" r=".5" fill="#2b4255" color="#000" overflow="visible" style="isolation:auto;mix-blend-mode:normal"/><circle style="isolation:auto;mix-blend-mode:normal" cx="-128.793" cy="1113.639" r=".5" fill="#2b4255" color="#000" overflow="visible"/><path fill="none" stroke="#f8b74e" stroke-opacity=".98" d="m -126.29272,1095.639 5,0 0,0"/><path fill="none" stroke="#f05542" d="m -120.29272,1095.639 2,0"/><path fill="none" stroke="#2b4255" d="m -117.29272,1095.639 10,0"/><path fill="none" stroke="#f05542" d="m -126.29272,1097.639 1,0 0,0"/><path fill="none" stroke="#2b4255" d="m -124.29272,1097.639 8,0"/><path fill="none" stroke="#f05542" d="m -115.29272,1097.639 1,0"/><path fill="none" stroke="#2b4255" d="M-113.29272 1097.639l4 0M-126.29272 1099.639l8 0"/><path fill="none" stroke="#f05542" d="m -126.29272,1101.639 2,0"/><path fill="none" stroke="#2b4255" d="m -123.29272,1101.639 7,0"/><path fill="none" stroke="#f8b74e" stroke-opacity=".98" d="m -122.29272,1103.639 4,0"/><path fill="none" stroke="#2b4255" d="M-122.29272 1105.639l6 0M-115.29272 1105.639l1 0M-122.29272 1107.639l6 0 0 0M-115.29272 1107.639l1 0"/><path fill="none" stroke="#f8b74e" stroke-opacity=".98" d="m -122.29272,1109.639 2,0"/><path fill="none" stroke="#2b4255" d="m -126.29272,1111.639 8,0"/><path fill="none" stroke="#f8b74e" stroke-opacity=".98" d="m -126.29272,1113.639 5,0"/><path fill="none" stroke="#2b4255" d="m -120.29272,1113.639 8,0"/><path fill="none" stroke="#f05542" d="m -117.29272,1111.639 2,0"/></g></g></svg>