<svg xmlns="http://www.w3.org/2000/svg" width="48" height="48" enable-background="new 0 0 48 48" viewBox="0 0 48 48"><path fill="#F0F1F2" d="M39,1h-2c-1.103,0-2,0.897-2,2v8.636l6,4.71V3C41,1.897,40.103,1,39,1z"/><path d="M39,1h-1c1.103,0,2,0.897,2,2v12.561l1,0.785V3C41,1.897,40.103,1,39,1z" opacity=".2"/><path fill="#E6E7E8" d="M46.617,18.213l-2-1.57c0,0,0,0-0.001,0L25.248,1.434c-0.735-0.577-1.761-0.577-2.496,0L3.383,16.643
	c0,0,0,0-0.001,0l-2,1.57c-0.435,0.341-0.51,0.97-0.169,1.404C1.411,19.869,1.704,20,2,20c0.216,0,0.434-0.07,0.617-0.213L3,19.486
	V45c0,1.103,0.897,2,2,2h38c1.103,0,2-0.897,2-2V19.486l0.383,0.3C45.566,19.93,45.783,20,46,20c0.296,0,0.59-0.131,0.787-0.382
	C47.127,19.183,47.052,18.554,46.617,18.213z"/><path d="M46.617,18.213l-2-1.57c0,0,0,0-0.001,0L25.248,1.434C24.589,0.916,23.707,0.889,23,1.299
	c0.082,0.047,0.172,0.075,0.248,0.135l19.369,15.21c0,0,0,0,0.001,0l2.477,1.952l-0.211,0.814l-1.817-1.475L43,45
	c0,1.103-0.897,2-2,2h2c1.103,0,2-0.897,2-2V19.486l0.383,0.3C45.566,19.93,45.783,20,46,20c0.296,0,0.59-0.131,0.787-0.382
	C47.127,19.183,47.052,18.554,46.617,18.213z" opacity=".2"/><circle cx="29" cy="16" r="5" fill="#F7A645"/><path d="M29,11c-0.342,0-0.677,0.035-1,0.101c2.279,0.465,4,2.484,4,4.899s-1.721,4.434-4,4.899
	C28.323,20.965,28.658,21,29,21c2.757,0,5-2.243,5-5S31.757,11,29,11z" opacity=".2"/><path fill="#F7A645" d="M32,23h-6c-3.86,0-7,3.14-7,7v1h2v10h18V30C39,26.14,35.86,23,32,23z"/><path d="M32,23h-2c3.86,0,7,3.14,7,7v11h2V30C39,26.14,35.86,23,32,23z" opacity=".2"/><path fill="#53A4E3" d="M21,29H11c-1.103,0-2,0.897-2,2v10h14V31C23,29.897,22.103,29,21,29z"/><path d="M21,29h-2c1.103,0,2,0.897,2,2v10h2V31C23,29.897,22.103,29,21,29z" opacity=".2"/><path fill="#7C7E85" d="M39,39H9c-1.103,0-2,0.897-2,2v6h34v-6C41,39.897,40.103,39,39,39z"/><path d="M39,39h-2c1.103,0,2,0.897,2,2v6h2v-6C41,39.897,40.103,39,39,39z" opacity=".2"/><path fill="#FFF" d="M9.82,14.699L9.82,14.699c-0.356-0.422-0.302-1.053,0.12-1.409l4.589-3.866
	c0.422-0.356,1.053-0.302,1.409,0.12l0,0c0.356,0.422,0.302,1.053-0.12,1.409l-4.589,3.866C10.806,15.175,10.175,15.121,9.82,14.699
	z"/><rect width="48" height="48" fill="none"/></svg>